<svg width="49" height="49" viewBox="0 0 49 49" fill="none" xmlns="http://www.w3.org/2000/svg">
<path fill-rule="evenodd" clip-rule="evenodd" d="M24.2607 34.5348C23.3265 34.5348 22.5684 33.7766 22.5684 32.8424V16.3091C22.5684 15.3749 23.3265 14.6168 24.2607 14.6168C25.1949 14.6168 25.9531 15.3749 25.9531 16.3091V32.8424C25.9531 33.7766 25.1949 34.5348 24.2607 34.5348Z" fill="#E0E0E0"/>
<path fill-rule="evenodd" clip-rule="evenodd" d="M32.5341 26.2672H15.9873C15.0508 26.2672 14.2949 25.5091 14.2949 24.5749C14.2949 23.6407 15.0508 22.8825 15.9873 22.8825H32.5341C33.4683 22.8825 34.2265 23.6407 34.2265 24.5749C34.2265 25.5091 33.4683 26.2672 32.5341 26.2672Z" fill="#E0E0E0"/>
<path fill-rule="evenodd" clip-rule="evenodd" d="M13.6868 3.72435C7.4318 3.72435 3.38817 8.00492 3.38817 14.6345V34.5593C3.38817 41.1889 7.4318 45.4694 13.6868 45.4694H34.8346C41.0919 45.4694 45.1332 41.1889 45.1332 34.5593V14.6345C45.1332 8.00492 41.0919 3.72435 34.8346 3.72435H13.6868ZM34.8345 48.854H13.6867C5.50236 48.854 0.0032959 43.109 0.0032959 34.5592V14.6343C0.0032959 6.0845 5.50236 0.339478 13.6867 0.339478H34.8345C43.0188 0.339478 48.5178 6.0845 48.5178 14.6343V34.5592C48.5178 43.109 43.0188 48.854 34.8345 48.854Z" fill="#E0E0E0"/>
</svg>
